<svg width="34" height="34" viewBox="0 0 34 34" fill="none" xmlns="http://www.w3.org/2000/svg">
<path d="M17 2.42847C25.0471 2.42847 31.5714 8.95282 31.5714 16.9999C31.5714 25.047 25.0471 31.5713 17 31.5713C8.95295 31.5713 2.42859 25.047 2.42859 16.9999C2.42859 8.95282 8.95295 2.42847 17 2.42847ZM17 4.45268C10.081 4.45268 4.4528 10.0809 4.4528 16.9999C4.4528 23.9189 10.081 29.5471 17 29.5471C23.919 29.5471 29.5472 23.9189 29.5472 16.9999C29.5472 10.0809 23.919 4.45268 17 4.45268ZM16.0893 8.4999C16.3094 8.4999 16.522 8.5796 16.6879 8.72426C16.8537 8.86891 16.9616 9.06872 16.9915 9.28675L17 9.41061V16.9999H22.1607C22.3915 17 22.6136 17.0876 22.7822 17.2451C22.9508 17.4027 23.0533 17.6183 23.069 17.8485C23.0848 18.0787 23.0125 18.3063 22.8669 18.4853C22.7213 18.6643 22.5132 18.7814 22.2846 18.8128L22.1607 18.8213H16.0893C15.8692 18.8213 15.6566 18.7416 15.4907 18.597C15.3249 18.4523 15.217 18.2525 15.1871 18.0345L15.1786 17.9106V9.41061C15.1786 9.16907 15.2745 8.93743 15.4453 8.76664C15.6161 8.59585 15.8478 8.4999 16.0893 8.4999Z" fill="#3D3AE7"/>
</svg>
