<svg width="23" height="30" viewBox="0 0 23 30" fill="none" xmlns="http://www.w3.org/2000/svg">
<path d="M3.88982 24.1687V12.0897C3.88982 9.95403 4.6916 7.90581 6.11879 6.39565C7.54597 4.88549 9.48165 4.03709 11.5 4.03709C13.5183 4.03709 15.454 4.88549 16.8812 6.39565C18.3084 7.90581 19.1102 9.95403 19.1102 12.0897V24.1687M3.88982 24.1687H19.1102M3.88982 24.1687H1.35309M19.1102 24.1687H21.6469M10.2316 28.195H12.7684" stroke="#FF0000" stroke-width="2.66667" stroke-linecap="round" stroke-linejoin="round"/>
<path d="M11.5 4.03711C12.2005 4.03711 12.7684 3.43623 12.7684 2.69501C12.7684 1.95378 12.2005 1.3529 11.5 1.3529C10.7995 1.3529 10.2316 1.95378 10.2316 2.69501C10.2316 3.43623 10.7995 4.03711 11.5 4.03711Z" stroke="#FF0000" stroke-width="2.66667"/>
</svg>
