<svg width="20" height="20" viewBox="0 0 20 20" fill="none" xmlns="http://www.w3.org/2000/svg">
<path d="M10 10.0001C12.3012 10.0001 14.1667 8.1346 14.1667 5.83341C14.1667 3.53223 12.3012 1.66675 10 1.66675C7.69885 1.66675 5.83337 3.53223 5.83337 5.83341C5.83337 8.1346 7.69885 10.0001 10 10.0001Z" stroke="#102F7E" stroke-width="2"/>
<path d="M14.1667 11.6667H14.46C15.0692 11.6669 15.6574 11.8896 16.1141 12.2928C16.5708 12.6961 16.8645 13.2522 16.94 13.8567L17.2658 16.4601C17.2951 16.6946 17.2742 16.9327 17.2045 17.1585C17.1348 17.3843 17.0178 17.5927 16.8614 17.7699C16.7049 17.9471 16.5126 18.0889 16.2971 18.1861C16.0817 18.2833 15.848 18.3335 15.6117 18.3334H4.38834C4.15199 18.3335 3.91834 18.2833 3.70288 18.1861C3.48742 18.0889 3.29509 17.9471 3.13866 17.7699C2.98222 17.5927 2.86525 17.3843 2.79551 17.1585C2.72578 16.9327 2.70487 16.6946 2.73418 16.4601L3.05918 13.8567C3.13476 13.2519 3.42869 12.6956 3.8857 12.2923C4.34272 11.889 4.93132 11.6665 5.54084 11.6667H5.83334" stroke="#102F7E" stroke-width="2" stroke-linecap="round" stroke-linejoin="round"/>
</svg>
