<svg width="20" height="28" viewBox="0 0 20 28" fill="none" xmlns="http://www.w3.org/2000/svg">
<path d="M17.5 9.25872H16.25V6.61337C16.25 2.96279 13.45 0 10 0C6.55 0 3.75 2.96279 3.75 6.61337V9.25872H2.5C1.125 9.25872 0 10.4491 0 11.9041V25.1308C0 26.5858 1.125 27.7762 2.5 27.7762H17.5C18.875 27.7762 20 26.5858 20 25.1308V11.9041C20 10.4491 18.875 9.25872 17.5 9.25872ZM6.25 6.61337C6.25 4.41773 7.925 2.64535 10 2.64535C12.075 2.64535 13.75 4.41773 13.75 6.61337V9.25872H6.25V6.61337ZM17.5 25.1308H2.5V11.9041H17.5V25.1308ZM10 21.1628C11.375 21.1628 12.5 19.9724 12.5 18.5174C12.5 17.0625 11.375 15.8721 10 15.8721C8.625 15.8721 7.5 17.0625 7.5 18.5174C7.5 19.9724 8.625 21.1628 10 21.1628Z" fill="#FF0000"/>
</svg>
