<svg width="20" height="20" viewBox="0 0 20 20" fill="none" xmlns="http://www.w3.org/2000/svg">
<g clip-path="url(#clip0_186_150)">
<path d="M9.99998 1.11108C8.24192 1.11108 6.52334 1.63241 5.06157 2.60913C3.5998 3.58586 2.46049 4.97411 1.78771 6.59834C1.11494 8.22257 0.938906 10.0098 1.28189 11.7341C1.62487 13.4584 2.47145 15.0422 3.71458 16.2854C4.95772 17.5285 6.54157 18.3751 8.26584 18.7181C9.99012 19.061 11.7774 18.885 13.4016 18.2122C15.0258 17.5395 16.4141 16.4001 17.3908 14.9384C18.3675 13.4766 18.8889 11.758 18.8889 9.99997C18.8889 7.64249 17.9524 5.38157 16.2854 3.71458C14.6184 2.04759 12.3575 1.11108 9.99998 1.11108ZM9.99998 17.7778C8.46168 17.7778 6.95792 17.3216 5.67888 16.467C4.39983 15.6123 3.40293 14.3976 2.81425 12.9764C2.22557 11.5552 2.07154 9.99135 2.37165 8.4826C2.67175 6.97386 3.41252 5.588 4.50026 4.50025C5.588 3.41251 6.97387 2.67175 8.48261 2.37164C9.99135 2.07154 11.5552 2.22556 12.9764 2.81424C14.3976 3.40293 15.6123 4.39982 16.467 5.67887C17.3216 6.95792 17.7778 8.46167 17.7778 9.99997C17.7778 12.0628 16.9583 14.0411 15.4997 15.4997C14.0411 16.9583 12.0628 17.7778 9.99998 17.7778Z" fill="#0029FF"/>
<path d="M10.1611 4.95564C9.55907 4.94569 8.96224 5.06846 8.41302 5.31522C7.8638 5.56199 7.37567 5.92669 6.98332 6.38342C6.92881 6.43393 6.88499 6.49487 6.85445 6.56262C6.82392 6.63037 6.80729 6.70356 6.80554 6.77786C6.80551 6.84641 6.81926 6.91426 6.84598 6.97738C6.8727 7.0405 6.91185 7.09761 6.96109 7.14529C7.01033 7.19298 7.06866 7.23027 7.1326 7.25496C7.19655 7.27964 7.26481 7.29121 7.33332 7.28897C7.48008 7.28533 7.62042 7.22801 7.72776 7.12786C8.02469 6.77991 8.39347 6.50041 8.80874 6.3086C9.224 6.11679 9.6759 6.01722 10.1333 6.01675C11.4444 6.01675 12.2611 6.86119 12.2611 7.91119V7.93897C12.2611 9.16675 11.2833 9.85008 9.73888 9.96675C9.67634 9.96916 9.61501 9.98476 9.55892 10.0125C9.50283 10.0403 9.45323 10.0796 9.41337 10.1278C9.37351 10.1761 9.34429 10.2322 9.32762 10.2925C9.31096 10.3528 9.30722 10.416 9.31665 10.4779C9.31665 10.4779 9.31665 11.7667 9.31665 12.0056C9.33047 12.1432 9.39505 12.2706 9.49778 12.363C9.6005 12.4555 9.734 12.5063 9.87221 12.5056H9.93332C10.0708 12.4918 10.1983 12.4272 10.2907 12.3245C10.3832 12.2218 10.434 12.0883 10.4333 11.9501V10.8056C12.1 10.5723 13.45 9.69453 13.45 7.8723V7.84453C13.4333 6.17786 12.1333 4.95564 10.1611 4.95564Z" fill="#0029FF"/>
<path d="M9.87779 15.25C10.2613 15.25 10.5722 14.9391 10.5722 14.5555C10.5722 14.172 10.2613 13.8611 9.87779 13.8611C9.49426 13.8611 9.18335 14.172 9.18335 14.5555C9.18335 14.9391 9.49426 15.25 9.87779 15.25Z" fill="#0029FF"/>
</g>
<defs>
<clipPath id="clip0_186_150">
<rect width="20" height="20" fill="white"/>
</clipPath>
</defs>
</svg>
