<svg width="288" height="240" viewBox="0 0 288 240" fill="none" xmlns="http://www.w3.org/2000/svg">
<path d="M186.507 52.5455C187.964 47.1092 195.677 47.1092 197.134 52.5455L197.884 55.3445C208.679 95.6289 240.181 127.072 280.485 137.793L283.413 138.571C288.862 140.021 288.862 147.754 283.413 149.204L280.485 149.982C240.181 160.703 208.679 192.146 197.884 232.43L197.134 235.229C195.677 240.666 187.964 240.666 186.507 235.229L185.757 232.43C174.962 192.146 143.46 160.703 103.156 149.982L100.228 149.204C94.7787 147.754 94.7787 140.021 100.228 138.571L103.156 137.793C143.46 127.072 174.962 95.6289 185.757 55.3445L186.507 52.5455Z" fill="#F1F3F4" stroke="black"/>
<path d="M118.561 5.27817C120.017 -0.158127 127.731 -0.158137 129.188 5.27815L129.849 7.74439C140.644 48.0288 172.146 79.4721 212.45 90.1921L215.044 90.8821C220.494 92.3315 220.494 100.065 215.044 101.515L212.45 102.205C172.146 112.925 140.644 144.368 129.849 184.652L129.188 187.119C127.731 192.555 120.017 192.555 118.561 187.119L117.9 184.652C107.104 144.368 75.6026 112.925 35.2982 102.205L32.7043 101.515C27.2548 100.065 27.2548 92.3315 32.7042 90.8821L35.2981 90.1921C75.6026 79.4721 107.104 48.0288 117.9 7.74441L118.561 5.27817Z" stroke="black"/>
<path d="M211.98 1.7295C212.148 0.0903069 214.54 0.0902973 214.708 1.7295C215.499 9.45487 221.618 15.5708 229.346 16.3435C230.984 16.5074 230.984 18.8951 229.346 19.059C221.618 19.8318 215.499 25.9476 214.708 33.673C214.54 35.3122 212.148 35.3122 211.98 33.673C211.189 25.9476 205.07 19.8318 197.342 19.059C195.704 18.8951 195.704 16.5074 197.342 16.3435C205.07 15.5708 211.189 9.45487 211.98 1.7295Z" fill="#F1F3F4" stroke="black"/>
<path d="M10.1363 51.0777C10.2149 50.3169 11.3266 50.3169 11.4052 51.0777C11.8989 55.8578 15.6886 59.6452 20.4723 60.1197C21.2311 60.195 21.2311 61.3012 20.4723 61.3764C15.6886 61.851 11.8989 65.6383 11.4052 70.4185C11.3266 71.1792 10.2149 71.1792 10.1363 70.4185C9.64259 65.6383 5.85292 61.851 1.06921 61.3764C0.310396 61.3012 0.310405 60.195 1.06921 60.1197C5.85292 59.6452 9.64259 55.8578 10.1363 51.0777Z" fill="#F1F3F4" stroke="black"/>
</svg>
