<svg width="34" height="34" viewBox="0 0 34 34" fill="none" xmlns="http://www.w3.org/2000/svg">
<path d="M17 2.42859C25.0471 2.42859 31.5714 8.95295 31.5714 17C31.5714 25.0471 25.0471 31.5714 17 31.5714C8.95295 31.5714 2.42859 25.0471 2.42859 17C2.42859 8.95295 8.95295 2.42859 17 2.42859ZM17 4.4528C10.081 4.4528 4.4528 10.081 4.4528 17C4.4528 23.919 10.081 29.5472 17 29.5472C23.919 29.5472 29.5472 23.919 29.5472 17C29.5472 10.081 23.919 4.4528 17 4.4528ZM16.0893 8.50002C16.3094 8.50003 16.522 8.57973 16.6879 8.72438C16.8537 8.86903 16.9616 9.06884 16.9915 9.28687L17 9.41073V17H22.1607C22.3915 17.0001 22.6136 17.0877 22.7822 17.2453C22.9508 17.4028 23.0533 17.6185 23.069 17.8487C23.0848 18.0789 23.0125 18.3065 22.8669 18.4855C22.7213 18.6644 22.5132 18.7815 22.2846 18.8129L22.1607 18.8214H16.0893C15.8692 18.8214 15.6566 18.7417 15.4907 18.5971C15.3249 18.4524 15.217 18.2526 15.1871 18.0346L15.1786 17.9107V9.41073C15.1786 9.1692 15.2745 8.93755 15.4453 8.76676C15.6161 8.59597 15.8478 8.50002 16.0893 8.50002Z" fill="#3D3AE7"/>
</svg>
