<svg width="20" height="27" viewBox="0 0 20 27" fill="none" xmlns="http://www.w3.org/2000/svg">
<path d="M8.75 19.8401H11.25V11.9041H8.75V19.8401ZM10 9.25872C10.3542 9.25872 10.6513 9.13174 10.8913 8.87779C11.1313 8.62384 11.2508 8.30992 11.25 7.93605C11.25 7.56129 11.13 7.24693 10.89 6.99298C10.65 6.73903 10.3533 6.61249 10 6.61337C9.64583 6.61337 9.34875 6.74035 9.10875 6.9943C8.86875 7.24826 8.74917 7.56217 8.75 7.93605C8.75 8.31081 8.87 8.62516 9.11 8.87911C9.35 9.13307 9.64667 9.2596 10 9.25872ZM10 26.4535C7.10417 25.6819 4.71333 23.9237 2.8275 21.1787C0.941667 18.4337 -0.000832781 15.3862 5.5212e-07 12.0363V3.96802L10 0L20 3.96802V12.0363C20 15.3871 19.0571 18.435 17.1712 21.18C15.2854 23.925 12.895 25.6828 10 26.4535ZM10 23.6759C12.1667 22.9484 13.9583 21.4935 15.375 19.311C16.7917 17.1286 17.5 14.7037 17.5 12.0363V5.7867L10 2.81068L2.5 5.7867V12.0363C2.5 14.7037 3.20833 17.1286 4.625 19.311C6.04167 21.4935 7.83333 22.9484 10 23.6759Z" fill="#FF0000"/>
</svg>
