<svg width="22" height="24" viewBox="0 0 22 24" fill="none" xmlns="http://www.w3.org/2000/svg">
<path d="M1 19.5174C1 18.1143 1.52678 16.7686 2.46447 15.7764C3.40215 14.7842 4.67392 14.2267 6 14.2267H16C17.3261 14.2267 18.5979 14.7842 19.5355 15.7764C20.4732 16.7686 21 18.1143 21 19.5174C21 20.219 20.7366 20.8919 20.2678 21.388C19.7989 21.8841 19.163 22.1628 18.5 22.1628H3.5C2.83696 22.1628 2.20107 21.8841 1.73223 21.388C1.26339 20.8919 1 20.219 1 19.5174Z" stroke="#FF0000" stroke-width="2" stroke-linejoin="round"/>
<path d="M11 8.93605C13.0711 8.93605 14.75 7.1595 14.75 4.96802C14.75 2.77654 13.0711 1 11 1C8.92893 1 7.25 2.77654 7.25 4.96802C7.25 7.1595 8.92893 8.93605 11 8.93605Z" stroke="#FF0000" stroke-width="2"/>
</svg>
